<svg xmlns="http://www.w3.org/2000/svg" id="android-svg2" width="135.716" height="40.019" viewBox="0 0 135.71649 40.018951"><defs><linearGradient x1="31.8" y1="183.29" x2="15.017" y2="166.508" gradientUnits="userSpaceOnUse" gradientTransform="matrix(0.8,0,0,-0.8,0,161.6)" id="android-linearGradient50"><stop offset="0" id="android-stop52" stop-color="#00a0ff"/><stop offset=".007" id="android-stop54" stop-color="#00a1ff"/><stop offset=".26" id="android-stop56" stop-color="#00beff"/><stop offset=".512" id="android-stop58" stop-color="#00d2ff"/><stop offset=".76" id="android-stop60" stop-color="#00dfff"/><stop offset="1" id="android-stop62" stop-color="#00e3ff"/></linearGradient><linearGradient x1="43.834" y1="171.999" x2="19.638" y2="171.999" gradientUnits="userSpaceOnUse" gradientTransform="matrix(0.8,0,0,-0.8,0,161.6)" id="android-linearGradient68"><stop offset="0" id="android-stop70" stop-color="#ffe000"/><stop offset=".409" id="android-stop72" stop-color="#ffbd00"/><stop offset=".775" id="android-stop74" stop-color="orange"/><stop offset="1" id="android-stop76" stop-color="#ff9c00"/></linearGradient><linearGradient x1="34.827" y1="169.704" x2="12.069" y2="146.946" gradientUnits="userSpaceOnUse" gradientTransform="matrix(0.8,0,0,-0.8,0,161.6)" id="android-linearGradient82"><stop offset="0" id="android-stop84" stop-color="#ff3a44"/><stop offset="1" id="android-stop86" stop-color="#c31162"/></linearGradient><linearGradient x1="17.297" y1="191.824" x2="27.46" y2="181.661" gradientUnits="userSpaceOnUse" gradientTransform="matrix(0.8,0,0,-0.8,0,161.6)" id="android-linearGradient92"><stop offset="0" id="android-stop94" stop-color="#32a071"/><stop offset=".069" id="android-stop96" stop-color="#2da771"/><stop offset=".476" id="android-stop98" stop-color="#15cf74"/><stop offset=".801" id="android-stop100" stop-color="#06e775"/><stop offset="1" id="android-stop102" stop-color="#00f076"/></linearGradient><clipPath id="android-clipPath110"><path d="M0 0h124v48H0V0z" id="android-path112"/></clipPath><mask maskUnits="userSpaceOnUse" x="0" y="0" width="1" height="1" id="android-mask114"><g id="android-g116"><g clip-path="url(#android-clipPath110)" id="android-g118"><path d="M0 0h124v48H0V0z" id="android-path120" fill-opacity=".2"/></g></g></mask><clipPath id="android-clipPath126"><path d="M0 0h124v48H0V0z" id="android-path128"/></clipPath><clipPath id="android-clipPath130"><path d="M0 0h124v48H0V0z" id="android-path132"/></clipPath><pattern patternTransform="matrix(1,0,0,-1,0,48)" patternUnits="userSpaceOnUse" width="124" height="48" id="android-pattern134"><g id="android-g138"><g clip-path="url(#android-clipPath130)" id="android-g140"><g id="android-g142"><path d="M29.625 20.695l-11.613-6.597c-.65-.37-1.23-.344-1.606-.008l-.058-.063.058-.058c.375-.337.957-.36 1.606.01L29.7 20.62l-.075.075z" id="android-path144"/></g></g></g></pattern><clipPath id="android-clipPath158"><path d="M0 0h124v48H0V0z" id="android-path160"/></clipPath><mask maskUnits="userSpaceOnUse" x="0" y="0" width="1" height="1" id="android-mask162"><g id="android-g164"><g clip-path="url(#android-clipPath158)" id="android-g166"><path d="M0 0h124v48H0V0z" id="android-path168" fill-opacity=".12"/></g></g></mask><clipPath id="android-clipPath174"><path d="M0 0h124v48H0V0z" id="android-path176"/></clipPath><clipPath id="android-clipPath178"><path d="M0 0h124v48H0V0z" id="android-path180"/></clipPath><pattern patternTransform="matrix(1,0,0,-1,0,48)" patternUnits="userSpaceOnUse" width="124" height="48" id="android-pattern182"><g id="android-g186"><g clip-path="url(#android-clipPath178)" id="android-g188"><g id="android-g190"><path d="M16.348 14.145c-.235.246-.37.628-.37 1.125v-.118c0-.496.135-.88.37-1.125l.058.063-.058.055z" id="android-path192"/></g></g></g></pattern><clipPath id="android-clipPath206"><path d="M0 0h124v48H0V0z" id="android-path208"/></clipPath><mask maskUnits="userSpaceOnUse" x="0" y="0" width="1" height="1" id="android-mask210"><g id="android-g212"><g clip-path="url(#android-clipPath206)" id="android-g214"><path d="M0 0h124v48H0V0z" id="android-path216" fill-opacity=".12"/></g></g></mask><clipPath id="android-clipPath222"><path d="M0 0h124v48H0V0z" id="android-path224"/></clipPath><clipPath id="android-clipPath226"><path d="M0 0h124v48H0V0z" id="android-path228"/></clipPath><pattern patternTransform="matrix(1,0,0,-1,0,48)" patternUnits="userSpaceOnUse" width="124" height="48" id="android-pattern230"><g id="android-g234"><g clip-path="url(#android-clipPath226)" id="android-g236"><g id="android-g238"><path d="M33.613 22.96l-3.988-2.265.074-.074 3.913 2.224c.56.316.836.734.836 1.156-.048-.38-.333-.75-.837-1.04z" id="android-path240"/></g></g></g></pattern><clipPath id="android-clipPath254"><path d="M0 0h124v48H0V0z" id="android-path256"/></clipPath><mask maskUnits="userSpaceOnUse" x="0" y="0" width="1" height="1" id="android-mask258"><g id="android-g260"><g clip-path="url(#android-clipPath254)" id="android-g262"><path d="M0 0h124v48H0V0z" id="android-path264" fill-opacity=".25"/></g></g></mask><clipPath id="android-clipPath270"><path d="M0 0h124v48H0V0z" id="android-path272"/></clipPath><clipPath id="android-clipPath274"><path d="M0 0h124v48H0V0z" id="android-path276"/></clipPath><pattern patternTransform="matrix(1,0,0,-1,0,48)" patternUnits="userSpaceOnUse" width="124" height="48" id="android-pattern278"><g id="android-g282"><g clip-path="url(#android-clipPath274)" id="android-g284"><g id="android-g286"><path d="M18.012 33.902l15.6-8.863c.51-.29.79-.66.837-1.04 0 .418-.278.836-.837 1.156l-15.6 8.864c-1.118.632-2.036.105-2.036-1.176v-.114c0 1.278.918 1.805 2.035 1.172z" id="android-path288" fill="#fff"/></g></g></g></pattern></defs><g id="android-g10"><g id="android-g12"><path d="M130.54 39.943H5.24c-2.755 0-5.012-2.23-5.012-4.954V5.266C.228 2.544 2.485.314 5.24.314h125.3c2.755 0 5.01 2.23 5.01 4.953V34.99c0 2.723-2.255 4.953-5.01 4.953z" id="android-path14"/><path d="M130.54 1.108c2.32 0 4.208 1.866 4.208 4.16v29.72c0 2.295-1.888 4.16-4.21 4.16H5.24c-2.32 0-4.208-1.865-4.208-4.16V5.27c0-2.294 1.888-4.16 4.208-4.16h125.3m0-.794H5.24C2.485.314.228 2.544.228 5.267V34.99c0 2.723 2.257 4.953 5.012 4.953h125.3c2.755 0 5.01-2.23 5.01-4.954V5.266c0-2.723-2.255-4.953-5.01-4.953z" id="android-path16" fill="#a6a6a6"/><g id="android-g18"><path d="M45.934 16.195c0 .668-.2 1.203-.594 1.602-.453.473-1.043.71-1.766.71-.69 0-1.28-.24-1.765-.718-.486-.485-.728-1.08-.728-1.79s.242-1.305.727-1.785c.483-.48 1.073-.723 1.764-.723.344 0 .672.07.985.203.31.133.565.313.75.535l-.42.422c-.32-.38-.757-.566-1.316-.566-.504 0-.94.176-1.312.53-.367.357-.55.818-.55 1.384s.183 1.03.55 1.387c.37.35.808.53 1.312.53.535 0 .985-.18 1.34-.534.234-.235.367-.56.402-.973h-1.742v-.578h2.324c.028.125.036.246.036.363z" id="android-path20" fill="#fff" stroke="#fff" stroke-width=".16" stroke-miterlimit="10" transform="matrix(1.25,0,0,-1.25,-9.4247625,49.85025) matrix(1.0023923,0,0,0.99072975,-0.29664807,0) matrix(1,0,0,-1,0,48)"/></g><g id="android-g22"><path d="M49.62 14.19H47.44v1.52h1.968v.58h-1.968v1.52h2.183v.588h-2.8v-4.796h2.8v.59z" id="android-path24" fill="#fff" stroke="#fff" stroke-width=".16" stroke-miterlimit="10" transform="matrix(1.25,0,0,-1.25,-9.4247625,49.85025) matrix(1.0023923,0,0,0.99072975,-0.29664807,0) matrix(1,0,0,-1,0,48)"/></g><g id="android-g26"><path d="M52.223 18.398h-.618V14.19h-1.34v-.588h3.298v.59h-1.34v4.206z" id="android-path28" fill="#fff" stroke="#fff" stroke-width=".16" stroke-miterlimit="10" transform="matrix(1.25,0,0,-1.25,-9.4247625,49.85025) matrix(1.0023923,0,0,0.99072975,-0.29664807,0) matrix(1,0,0,-1,0,48)"/></g><g id="android-g30"><path d="M55.95 18.398v-4.796h.616v4.796h-.617z" id="android-path32" fill="#fff" stroke="#fff" stroke-width=".16" stroke-miterlimit="10" transform="matrix(1.25,0,0,-1.25,-9.4247625,49.85025) matrix(1.0023923,0,0,0.99072975,-0.29664807,0) matrix(1,0,0,-1,0,48)"/></g><g id="android-g34"><path d="M59.3 18.398h-.612V14.19h-1.344v-.588h3.3v.59h-1.343v4.206z" id="android-path36" fill="#fff" stroke="#fff" stroke-width=".16" stroke-miterlimit="10" transform="matrix(1.25,0,0,-1.25,-9.4247625,49.85025) matrix(1.0023923,0,0,0.99072975,-0.29664807,0) matrix(1,0,0,-1,0,48)"/></g><g id="android-g38"><path d="M66.887 17.78c-.473.486-1.06.728-1.758.728-.704 0-1.29-.242-1.763-.727-.472-.483-.707-1.077-.707-1.78 0-.703.235-1.297.707-1.78.473-.486 1.06-.728 1.762-.728.694 0 1.28.242 1.753.73.476.49.71 1.08.71 1.778 0 .703-.234 1.297-.706 1.78zm-3.063-.4c.356.358.79.538 1.305.538.51 0 .948-.18 1.3-.54.355-.358.535-.82.535-1.378 0-.56-.18-1.02-.535-1.38-.352-.358-.79-.538-1.3-.538-.517 0-.95.18-1.306.54-.355.358-.535.82-.535 1.378 0 .56.18 1.02.534 1.38z" id="android-path40" fill="#fff" stroke="#fff" stroke-width=".16" stroke-miterlimit="10" transform="matrix(1.25,0,0,-1.25,-9.4247625,49.85025) matrix(1.0023923,0,0,0.99072975,-0.29664807,0) matrix(1,0,0,-1,0,48)"/></g><g id="android-g42"><path d="M68.46 18.398v-4.796h.75l2.333 3.73h.027l-.027-.922v-2.808h.617v4.796h-.644l-2.442-3.914h-.027l.027.926v2.988h-.613z" id="android-path44" fill="#fff" stroke="#fff" stroke-width=".16" stroke-miterlimit="10" transform="matrix(1.25,0,0,-1.25,-9.4247625,49.85025) matrix(1.0023923,0,0,0.99072975,-0.29664807,0) matrix(1,0,0,-1,0,48)"/></g><path d="M68.526 21.865c-2.354 0-4.277 1.77-4.277 4.214 0 2.423 1.922 4.212 4.276 4.212 2.36 0 4.283-1.79 4.283-4.213 0-2.444-1.924-4.215-4.284-4.215zm0 6.768c-1.29 0-2.403-1.054-2.403-2.554 0-1.52 1.112-2.556 2.403-2.556 1.292 0 2.41 1.035 2.41 2.555 0 1.5-1.118 2.553-2.41 2.553zm-9.333-6.768c-2.36 0-4.278 1.77-4.278 4.214 0 2.423 1.918 4.212 4.278 4.212 2.358 0 4.278-1.79 4.278-4.213 0-2.444-1.92-4.215-4.277-4.215zm0 6.768c-1.293 0-2.408-1.054-2.408-2.554 0-1.52 1.115-2.556 2.408-2.556 1.292 0 2.403 1.035 2.403 2.555 0 1.5-1.11 2.553-2.403 2.553zm-11.107-5.477v1.79h4.327c-.127 1.002-.465 1.737-.984 2.25-.632.62-1.616 1.307-3.344 1.307-2.662 0-4.747-2.124-4.747-4.756s2.084-4.756 4.746-4.756c1.44 0 2.488.558 3.26 1.278l1.277-1.262c-1.08-1.02-2.52-1.804-4.537-1.804-3.65 0-6.72 2.936-6.72 6.545 0 3.61 3.07 6.545 6.72 6.545 1.974 0 3.456-.64 4.62-1.838 1.195-1.18 1.568-2.84 1.568-4.18 0-.416-.035-.798-.098-1.118h-6.09zm45.416 1.39c-.352-.944-1.438-2.68-3.65-2.68-2.194 0-4.02 1.706-4.02 4.213 0 2.36 1.807 4.212 4.23 4.212 1.958 0 3.088-1.18 3.553-1.868l-1.453-.957c-.485.7-1.146 1.166-2.1 1.166-.95 0-1.63-.43-2.065-1.277l5.702-2.332-.198-.48zm-5.814 1.402c-.05-1.625 1.277-2.457 2.227-2.457.744 0 1.376.368 1.586.895l-3.812 1.563zm-4.634 4.088h1.874V17.652h-1.874v12.384zm-3.07-7.233h-.063c-.42-.493-1.223-.938-2.24-.938-2.136 0-4.088 1.852-4.088 4.228 0 2.36 1.952 4.2 4.087 4.2 1.017 0 1.82-.45 2.24-.958h.064v.604c0 1.61-.87 2.476-2.276 2.476-1.145 0-1.855-.817-2.15-1.505l-1.63.674c.47 1.117 1.715 2.49 3.78 2.49 2.198 0 4.052-1.277 4.052-4.386V22.12h-1.776v.683zm-2.144 5.83c-1.292 0-2.373-1.07-2.373-2.54 0-1.485 1.08-2.57 2.373-2.57 1.273 0 2.277 1.085 2.277 2.57 0 1.47-1.004 2.54-2.277 2.54zm24.438-10.98h-4.483v12.383h1.87v-4.693h2.613c2.076 0 4.112-1.485 4.112-3.846 0-2.36-2.04-3.845-4.112-3.845zm.05 5.968h-2.664v-4.246h2.663c1.396 0 2.193 1.146 2.193 2.123 0 .958-.797 2.124-2.193 2.124zm11.555-1.78c-1.35 0-2.755.59-3.333 1.897l1.66.687c.356-.687 1.013-.91 1.707-.91.97 0 1.954.576 1.97 1.593v.13c-.34-.193-1.064-.48-1.955-.48-1.787 0-3.607.973-3.607 2.787 0 1.66 1.463 2.728 3.11 2.728 1.257 0 1.95-.56 2.387-1.213h.064v.956h1.805v-4.75c0-2.196-1.658-3.425-3.807-3.425zm-.225 6.788c-.612 0-1.464-.3-1.464-1.05 0-.958 1.063-1.326 1.983-1.326.823 0 1.21.18 1.71.416-.148 1.147-1.147 1.96-2.23 1.96zm10.61-6.516l-2.147 5.37h-.063l-2.222-5.37h-2.016l3.337 7.503-1.905 4.174h1.954l5.143-11.678h-2.08zm-16.85 7.924h1.874V17.652h-1.874v12.384z" id="android-path46" fill="#fff"/><g id="android-g48"><path d="M16.348 33.97c-.235-.247-.37-.63-.37-1.126V15.152c0-.496.135-.88.37-1.125l.058-.054 9.914 9.91v.234l-9.914 9.91-.058-.058z" id="android-path64" fill="url(#android-linearGradient50)" transform="matrix(1.25,0,0,-1.25,-9.4247625,49.85025) matrix(1.0023923,0,0,0.99072975,-0.29664807,0)"/></g><g id="android-g66"><path d="M29.62 20.578l-3.3 3.305v.234l3.305 3.305.074-.043 3.913-2.228c1.117-.632 1.117-1.672 0-2.308L29.7 20.62l-.08-.042z" id="android-path78" fill="url(#android-linearGradient68)" transform="matrix(1.25,0,0,-1.25,-9.4247625,49.85025) matrix(1.0023923,0,0,0.99072975,-0.29664807,0)"/></g><g id="android-g80"><path d="M29.7 20.62L26.32 24l-9.972-9.973c.37-.39.976-.437 1.664-.047L29.7 20.62" id="android-path88" fill="url(#android-linearGradient82)" transform="matrix(1.25,0,0,-1.25,-9.4247625,49.85025) matrix(1.0023923,0,0,0.99072975,-0.29664807,0)"/></g><g id="android-g90"><path d="M29.7 27.38L18.01 34.02c-.688.386-1.293.34-1.664-.05L26.32 24l3.38 3.38z" id="android-path104" fill="url(#android-linearGradient92)" transform="matrix(1.25,0,0,-1.25,-9.4247625,49.85025) matrix(1.0023923,0,0,0.99072975,-0.29664807,0)"/></g><g id="android-g106"><g id="android-g122" mask="url(#android-mask114)" transform="matrix(1.25,0,0,-1.25,-9.4247625,49.85025) matrix(1.0023923,0,0,0.99072975,-0.29664807,0)"><g id="android-g146"><g clip-path="url(#android-clipPath126)" id="android-g148"><g id="android-g150"><path d="M0 0h124v48H0V0z" id="android-path152" fill="url(#android-pattern134)"/></g></g></g></g></g><g id="android-g154"><g id="android-g170" mask="url(#android-mask162)" transform="matrix(1.25,0,0,-1.25,-9.4247625,49.85025) matrix(1.0023923,0,0,0.99072975,-0.29664807,0)"><g id="android-g194"><g clip-path="url(#android-clipPath174)" id="android-g196"><g id="android-g198"><path d="M0 0h124v48H0V0z" id="android-path200" fill="url(#android-pattern182)"/></g></g></g></g></g><g id="android-g202"><g id="android-g218" mask="url(#android-mask210)" transform="matrix(1.25,0,0,-1.25,-9.4247625,49.85025) matrix(1.0023923,0,0,0.99072975,-0.29664807,0)"><g id="android-g242"><g clip-path="url(#android-clipPath222)" id="android-g244"><g id="android-g246"><path d="M0 0h124v48H0V0z" id="android-path248" fill="url(#android-pattern230)"/></g></g></g></g></g><g id="android-g250"><g id="android-g266" mask="url(#android-mask258)" transform="matrix(1.25,0,0,-1.25,-9.4247625,49.85025) matrix(1.0023923,0,0,0.99072975,-0.29664807,0)"><g id="android-g290"><g clip-path="url(#android-clipPath270)" id="android-g292"><g id="android-g294"><path d="M0 0h124v48H0V0z" id="android-path296" fill="url(#android-pattern278)"/></g></g></g></g></g></g></g></svg>
