<svg data-v-423bf9ae="" xmlns="http://www.w3.org/2000/svg" viewBox="0 0 356.77216236607813 163" class="iconAbove"><!----><!----><!----><g data-v-423bf9ae="" id="dc1cbc1f-f5fb-4ec6-a528-de188a6283f9" fill="#FFFFFF" transform="matrix(6.329114229666516,0,0,6.329114229666516,-7.34177738547524,95.46835322770487)"><path d="M1.16 1.36L3.35 1.36L3.35 1.36Q4.10 1.36 4.77 1.50L4.77 1.50L4.77 1.50Q5.43 1.65 5.93 1.99L5.93 1.99L5.93 1.99Q6.43 2.34 6.72 2.90L6.72 2.90L6.72 2.90Q7.01 3.46 7.01 4.30L7.01 4.30L7.01 4.30Q7.01 5.11 6.72 5.67L6.72 5.67L6.72 5.67Q6.43 6.23 5.94 6.58L5.94 6.58L5.94 6.58Q5.46 6.93 4.84 7.08L4.84 7.08L4.84 7.08Q4.21 7.24 3.56 7.24L3.56 7.24L2.56 7.24L2.56 10.50L1.16 10.50L1.16 1.36ZM2.56 5.99L3.44 5.99L3.44 5.99Q3.84 5.99 4.21 5.91L4.21 5.91L4.21 5.91Q4.59 5.82 4.89 5.63L4.89 5.63L4.89 5.63Q5.18 5.43 5.36 5.11L5.36 5.11L5.36 5.11Q5.53 4.79 5.53 4.30L5.53 4.30L5.53 4.30Q5.53 3.79 5.36 3.46L5.36 3.46L5.36 3.46Q5.18 3.14 4.88 2.95L4.88 2.95L4.88 2.95Q4.58 2.76 4.17 2.68L4.17 2.68L4.17 2.68Q3.77 2.60 3.32 2.60L3.32 2.60L2.56 2.60L2.56 5.99ZM12.52 3.30L12.52 4.47L12.52 4.47Q12.42 4.44 12.31 4.41L12.31 4.41L12.31 4.41Q12.21 4.38 12.09 4.36L12.09 4.36L12.09 4.36Q11.97 4.34 11.86 4.34L11.86 4.34L11.86 4.34Q11.26 4.34 10.86 4.61L10.86 4.61L10.86 4.61Q10.47 4.89 10.25 5.31L10.25 5.31L10.25 5.31Q10.02 5.73 9.93 6.24L9.93 6.24L9.93 6.24Q9.84 6.76 9.84 7.25L9.84 7.25L9.84 10.50L8.53 10.50L8.53 3.36L9.65 3.36L9.80 4.47L9.80 4.47Q10.00 4.12 10.23 3.84L10.23 3.84L10.23 3.84Q10.47 3.57 10.79 3.40L10.79 3.40L10.79 3.40Q11.12 3.23 11.54 3.20L11.54 3.20L11.54 3.20Q11.96 3.16 12.52 3.30L12.52 3.30ZM17.35 10.67L17.35 10.67L17.35 10.67Q16.14 10.67 15.39 10.31L15.39 10.31L15.39 10.31Q14.64 9.95 14.22 9.39L14.22 9.39L14.22 9.39Q13.80 8.83 13.65 8.14L13.65 8.14L13.65 8.14Q13.50 7.45 13.50 6.78L13.50 6.78L13.50 6.78Q13.50 6.10 13.71 5.46L13.71 5.46L13.71 5.46Q13.93 4.82 14.34 4.31L14.34 4.31L14.34 4.31Q14.76 3.81 15.36 3.50L15.36 3.50L15.36 3.50Q15.96 3.19 16.74 3.19L16.74 3.19L16.74 3.19Q17.68 3.19 18.31 3.52L18.31 3.52L18.31 3.52Q18.94 3.85 19.32 4.38L19.32 4.38L19.32 4.38Q19.70 4.90 19.85 5.54L19.85 5.54L19.85 5.54Q20.01 6.17 20.01 6.78L20.01 6.78L20.01 7.22L14.90 7.22L14.90 7.22Q14.95 7.90 15.20 8.41L15.20 8.41L15.20 8.41Q15.32 8.64 15.48 8.86L15.48 8.86L15.48 8.86Q15.65 9.07 15.90 9.24L15.90 9.24L15.90 9.24Q16.14 9.41 16.46 9.51L16.46 9.51L16.46 9.51Q16.79 9.60 17.21 9.60L17.21 9.60L17.21 9.60Q17.65 9.60 18.05 9.50L18.05 9.50L18.05 9.50Q18.45 9.39 18.76 9.27L18.76 9.27L18.76 9.27Q19.12 9.11 19.43 8.92L19.43 8.92L19.45 10.12L19.45 10.12Q19.45 10.12 19.29 10.21L19.29 10.21L19.29 10.21Q19.12 10.30 18.84 10.40L18.84 10.40L18.84 10.40Q18.56 10.50 18.18 10.58L18.18 10.58L18.18 10.58Q17.79 10.67 17.35 10.67ZM14.90 6.24L18.61 6.24L18.61 6.24Q18.61 5.89 18.50 5.54L18.50 5.54L18.50 5.54Q18.40 5.18 18.17 4.89L18.17 4.89L18.17 4.89Q17.95 4.61 17.60 4.43L17.60 4.43L17.60 4.43Q17.25 4.26 16.74 4.26L16.74 4.26L16.74 4.26Q16.31 4.26 15.97 4.43L15.97 4.43L15.97 4.43Q15.62 4.61 15.39 4.89L15.39 4.89L15.39 4.89Q15.15 5.18 15.02 5.54L15.02 5.54L15.02 5.54Q14.90 5.89 14.90 6.24L14.90 6.24ZM25.76 1.19L25.76 1.19L25.76 1.19Q26.25 1.19 26.70 1.25L26.70 1.25L26.70 1.25Q27.16 1.32 27.50 1.39L27.50 1.39L27.50 1.39Q27.89 1.47 28.22 1.58L28.22 1.58L28.22 2.79L28.22 2.79Q27.64 2.63 27.01 2.54L27.01 2.54L27.01 2.54Q26.39 2.45 25.79 2.47L25.79 2.47L25.79 2.47Q25.19 2.49 24.64 2.67L24.64 2.67L24.64 2.67Q24.09 2.86 23.68 3.25L23.68 3.25L23.68 3.25Q23.27 3.65 23.03 4.30L23.03 4.30L23.03 4.30Q22.79 4.96 22.79 5.94L22.79 5.94L22.79 5.94Q22.79 6.92 23.03 7.57L23.03 7.57L23.03 7.57Q23.27 8.23 23.68 8.63L23.68 8.63L23.68 8.63Q24.09 9.03 24.64 9.21L24.64 9.21L24.64 9.21Q25.19 9.39 25.79 9.41L25.79 9.41L25.79 9.41Q26.39 9.44 27.01 9.34L27.01 9.34L27.01 9.34Q27.64 9.24 28.22 9.09L28.22 9.09L28.22 10.23L28.22 10.23Q27.89 10.36 27.50 10.46L27.50 10.46L27.50 10.46Q27.16 10.54 26.70 10.61L26.70 10.61L26.70 10.61Q26.25 10.67 25.76 10.67L25.76 10.67L25.76 10.67Q25.09 10.67 24.32 10.46L24.32 10.46L24.32 10.46Q23.55 10.26 22.90 9.74L22.90 9.74L22.90 9.74Q22.25 9.21 21.82 8.29L21.82 8.29L21.82 8.29Q21.39 7.38 21.39 5.94L21.39 5.94L21.39 5.94Q21.39 4.98 21.59 4.26L21.59 4.26L21.59 4.26Q21.78 3.53 22.12 3.00L22.12 3.00L22.12 3.00Q22.46 2.48 22.90 2.13L22.90 2.13L22.90 2.13Q23.35 1.78 23.83 1.57L23.83 1.57L23.83 1.57Q24.32 1.36 24.81 1.27L24.81 1.27L24.81 1.27Q25.31 1.19 25.76 1.19ZM32.27 9.52L32.27 10.50L32.27 10.50Q32.05 10.58 31.77 10.63L31.77 10.63L31.77 10.63Q31.49 10.67 31.25 10.67L31.25 10.67L31.25 10.67Q30.53 10.67 30.16 10.25L30.16 10.25L30.16 10.25Q29.78 9.83 29.78 9.03L29.78 9.03L29.78 1.62L31.09 1.62L31.09 9.00L31.09 9.00Q31.09 9.30 31.20 9.44L31.20 9.44L31.20 9.44Q31.30 9.59 31.56 9.59L31.56 9.59L31.56 9.59Q31.70 9.59 31.93 9.57L31.93 9.57L31.93 9.57Q32.16 9.55 32.27 9.52L32.27 9.52ZM37.23 3.19L37.23 3.19L37.23 3.19Q37.77 3.19 38.41 3.35L38.41 3.35L38.41 3.35Q39.05 3.51 39.59 3.93L39.59 3.93L39.59 3.93Q40.14 4.35 40.51 5.08L40.51 5.08L40.51 5.08Q40.88 5.81 40.88 6.94L40.88 6.94L40.88 6.94Q40.88 8.08 40.51 8.80L40.51 8.80L40.51 8.80Q40.14 9.52 39.59 9.93L39.59 9.93L39.59 9.93Q39.05 10.35 38.41 10.51L38.41 10.51L38.41 10.51Q37.77 10.67 37.23 10.67L37.23 10.67L37.23 10.67Q36.69 10.67 36.06 10.51L36.06 10.51L36.06 10.51Q35.43 10.35 34.89 9.93L34.89 9.93L34.89 9.93Q34.34 9.52 33.98 8.80L33.98 8.80L33.98 8.80Q33.61 8.08 33.61 6.94L33.61 6.94L33.61 6.94Q33.61 5.81 33.98 5.08L33.98 5.08L33.98 5.08Q34.34 4.35 34.89 3.93L34.89 3.93L34.89 3.93Q35.43 3.51 36.06 3.35L36.06 3.35L36.06 3.35Q36.69 3.19 37.23 3.19ZM37.23 9.60L37.23 9.60L37.23 9.60Q37.69 9.60 38.10 9.44L38.10 9.44L38.10 9.44Q38.51 9.28 38.81 8.95L38.81 8.95L38.81 8.95Q39.12 8.61 39.30 8.11L39.30 8.11L39.30 8.11Q39.48 7.62 39.48 6.94L39.48 6.94L39.48 6.94Q39.48 6.27 39.30 5.77L39.30 5.77L39.30 5.77Q39.12 5.26 38.81 4.93L38.81 4.93L38.81 4.93Q38.51 4.59 38.10 4.42L38.10 4.42L38.10 4.42Q37.69 4.26 37.23 4.26L37.23 4.26L37.23 4.26Q36.78 4.26 36.38 4.42L36.38 4.42L36.38 4.42Q35.98 4.59 35.68 4.93L35.68 4.93L35.68 4.93Q35.38 5.26 35.20 5.77L35.20 5.77L35.20 5.77Q35.03 6.27 35.03 6.94L35.03 6.94L35.03 6.94Q35.03 7.62 35.20 8.11L35.20 8.11L35.20 8.11Q35.38 8.61 35.68 8.95L35.68 8.95L35.68 8.95Q35.98 9.28 36.38 9.44L36.38 9.44L36.38 9.44Q36.78 9.60 37.23 9.60ZM45.33 10.67L45.33 10.67L45.33 10.67Q43.93 10.67 43.29 9.84L43.29 9.84L43.29 9.84Q42.64 9.02 42.64 7.49L42.64 7.49L42.64 3.36L43.97 3.36L43.97 7.13L43.97 7.13Q43.97 8.40 44.30 9.00L44.30 9.00L44.30 9.00Q44.62 9.60 45.43 9.60L45.43 9.60L45.43 9.60Q45.99 9.60 46.40 9.39L46.40 9.39L46.40 9.39Q46.82 9.18 47.10 8.80L47.10 8.80L47.10 8.80Q47.38 8.41 47.52 7.88L47.52 7.88L47.52 7.88Q47.66 7.34 47.66 6.68L47.66 6.68L47.66 3.36L48.97 3.36L48.97 10.50L47.87 10.50L47.66 9.37L47.66 9.37Q47.32 9.94 46.68 10.30L46.68 10.30L46.68 10.30Q46.03 10.67 45.33 10.67ZM53.77 3.19L53.77 3.19L53.77 3.19Q54.47 3.19 55.13 3.45L55.13 3.45L55.13 3.45Q55.78 3.71 56.21 4.28L56.21 4.28L56.21 1.62L57.53 1.62L57.53 10.50L56.49 10.50L56.21 9.49L56.21 9.48L56.21 9.48Q56.01 9.83 55.68 10.08L55.68 10.08L55.68 10.08Q55.40 10.30 54.93 10.49L54.93 10.49L54.93 10.49Q54.46 10.67 53.77 10.67L53.77 10.67L53.77 10.67Q53.06 10.67 52.49 10.37L52.49 10.37L52.49 10.37Q51.93 10.07 51.53 9.56L51.53 9.56L51.53 9.56Q51.14 9.06 50.94 8.38L50.94 8.38L50.94 8.38Q50.74 7.70 50.74 6.94L50.74 6.94L50.74 6.94Q50.74 6.19 50.94 5.51L50.94 5.51L50.94 5.51Q51.14 4.83 51.53 4.31L51.53 4.31L51.53 4.31Q51.93 3.79 52.49 3.49L52.49 3.49L52.49 3.49Q53.06 3.19 53.77 3.19ZM54.07 9.60L54.07 9.60L54.07 9.60Q54.49 9.60 54.87 9.44L54.87 9.44L54.87 9.44Q55.26 9.28 55.55 8.95L55.55 8.95L55.55 8.95Q55.85 8.62 56.03 8.12L56.03 8.12L56.03 8.12Q56.21 7.62 56.21 6.94L56.21 6.94L56.21 6.94Q56.21 6.27 56.03 5.77L56.03 5.77L56.03 5.77Q55.85 5.26 55.55 4.93L55.55 4.93L55.55 4.93Q55.26 4.59 54.87 4.42L54.87 4.42L54.87 4.42Q54.49 4.26 54.07 4.26L54.07 4.26L54.07 4.26Q53.68 4.26 53.33 4.42L53.33 4.42L53.33 4.42Q52.98 4.59 52.71 4.93L52.71 4.93L52.71 4.93Q52.44 5.26 52.29 5.77L52.29 5.77L52.29 5.77Q52.14 6.27 52.14 6.94L52.14 6.94L52.14 6.94Q52.14 7.62 52.29 8.12L52.29 8.12L52.29 8.12Q52.44 8.62 52.71 8.95L52.71 8.95L52.71 8.95Q52.98 9.28 53.33 9.44L53.33 9.44L53.33 9.44Q53.68 9.60 54.07 9.60Z"></path></g><!----><g data-v-423bf9ae="" id="062029f4-31a9-43bc-a9c5-824aa0d4d38b" transform="matrix(1.8907528780276,0,0,1.8907528780276,122.277413659172,-11.522667673873492)" stroke="none" fill="#041814"><path d="M29.59 53.71a.978.978 0 0 0 .82 0c.49-.22 12.15-5.52 12.15-12.48V29.67c0-.45-.3-.85-.73-.97l-11.57-3.17a.955.955 0 0 0-.53 0L18.17 28.7c-.44.12-.74.52-.74.97v11.56c0 6.96 11.66 12.26 12.16 12.48zM24 40.05a.996.996 0 0 1 1.41 0l2.08 2.08 7.09-7.09c.39-.39 1.03-.39 1.42 0 .39.39.39 1.02 0 1.41l-7.8 7.8c-.19.19-.45.3-.71.3a1 1 0 0 1-.71-.3L24 41.47c-.39-.39-.39-1.03 0-1.42z"></path><path d="M54 30.02c0-5.96-4.85-10.81-10.81-10.81-.31 0-.62.01-.91.04-.11-7.22-6-13.05-13.24-13.05S15.9 12.04 15.8 19.26c-5.49.5-9.8 5.14-9.8 10.76 0 5.5 4.05 10.02 9.43 10.71V29.67c0-1.35.91-2.54 2.21-2.9L29.2 23.6a2.923 2.923 0 0 1 1.63.01l11.53 3.16c1.3.36 2.2 1.56 2.2 2.9v11.07c5.36-.67 9.44-5.21 9.44-10.72zm-16.72-9.58c-.55 0-1-.45-1-1 0-3.99-3.25-7.24-7.24-7.24-.55 0-1-.45-1-1s.45-1 1-1c5.1 0 9.24 4.14 9.24 9.24 0 .55-.45 1-1 1zM49 31.02c-.55 0-1-.45-1-1 0-2.65-2.16-4.81-4.81-4.81-.55 0-1-.45-1-1s.45-1 1-1c3.75 0 6.81 3.05 6.81 6.81 0 .55-.45 1-1 1z"></path></g><!----></svg>